<svg width="32" height="32" viewBox="0 0 32 32" fill="none" xmlns="http://www.w3.org/2000/svg">
<path d="M0.846897 10.0333C1.33368 5.04792 5.31806 1.17702 10.3175 0.77696C12.3315 0.615794 14.3889 0.5 16.1381 0.5C17.8062 0.5 19.7546 0.605291 21.6787 0.754869C26.8047 1.15334 30.8446 5.20251 31.2405 10.3297C31.3924 12.2968 31.5 14.2936 31.5 16C31.5 17.7007 31.3931 19.69 31.242 21.6509C30.8462 26.7866 26.7941 30.8388 21.6583 31.2383C19.6883 31.3915 17.6935 31.5 16 31.5C14.2759 31.5 12.2653 31.3875 10.2968 31.23C5.30742 30.8306 1.33566 26.9629 0.848804 21.9862C0.646457 19.9178 0.5 17.7977 0.5 16C0.5 14.208 0.645534 12.0956 0.846897 10.0333Z" fill="white" stroke="#EBEEF2"/>
<path d="M10 11.5614V9.08398L19.3677 13.4969V16.2066L13.0968 19.1485L19.3677 22.2453V24.8775L10 20.2324V17.6775L16.4258 14.5808L10 11.5614Z" fill="#29CCC4"/>
<path d="M12.4774 8L10 9.08387L19.3677 13.4968L21.7677 12.4129L12.4774 8Z" fill="#036F7D"/>
<path d="M19.3672 16.2065V13.4968L21.7672 12.437V15.0452L19.3672 16.2065Z" fill="#299197"/>
<path d="M21.9994 16.2839L19.3672 17.3678V24.8001L21.9994 23.7162V16.2839Z" fill="#299197"/>
</svg>
